<mxfile host="app.diagrams.net" agent="Mozilla/5.0 (Windows NT 10.0; Win64; x64) AppleWebKit/537.36 (KHTML, like Gecko) Chrome/131.0.0.0 Safari/537.36" version="24.8.6">
  <diagram id="C5RBs43oDa-KdzZeNtuy" name="Page-1">
    <mxGraphModel dx="1500" dy="796" grid="1" gridSize="10" guides="1" tooltips="1" connect="1" arrows="1" fold="1" page="1" pageScale="1" pageWidth="827" pageHeight="1169" math="0" shadow="0">
      <root>
        <mxCell id="WIyWlLk6GJQsqaUBKTNV-0" />
        <mxCell id="WIyWlLk6GJQsqaUBKTNV-1" parent="WIyWlLk6GJQsqaUBKTNV-0" />
        <mxCell id="HGXFlzgKNrNibN4fWjjz-2" style="edgeStyle=orthogonalEdgeStyle;rounded=0;orthogonalLoop=1;jettySize=auto;html=1;entryX=0.5;entryY=0;entryDx=0;entryDy=0;" edge="1" parent="WIyWlLk6GJQsqaUBKTNV-1" source="HGXFlzgKNrNibN4fWjjz-0" target="HGXFlzgKNrNibN4fWjjz-1">
          <mxGeometry relative="1" as="geometry" />
        </mxCell>
        <mxCell id="HGXFlzgKNrNibN4fWjjz-0" value="Start" style="ellipse;whiteSpace=wrap;html=1;" vertex="1" parent="WIyWlLk6GJQsqaUBKTNV-1">
          <mxGeometry x="484" y="40" width="121" height="80" as="geometry" />
        </mxCell>
        <mxCell id="HGXFlzgKNrNibN4fWjjz-10" value="" style="edgeStyle=orthogonalEdgeStyle;rounded=0;orthogonalLoop=1;jettySize=auto;html=1;" edge="1" parent="WIyWlLk6GJQsqaUBKTNV-1" source="HGXFlzgKNrNibN4fWjjz-1" target="HGXFlzgKNrNibN4fWjjz-3">
          <mxGeometry relative="1" as="geometry" />
        </mxCell>
        <mxCell id="HGXFlzgKNrNibN4fWjjz-1" value="numbers(Array)[0:10]" style="rounded=0;whiteSpace=wrap;html=1;" vertex="1" parent="WIyWlLk6GJQsqaUBKTNV-1">
          <mxGeometry x="467" y="190" width="155" height="60" as="geometry" />
        </mxCell>
        <mxCell id="HGXFlzgKNrNibN4fWjjz-11" value="" style="edgeStyle=orthogonalEdgeStyle;rounded=0;orthogonalLoop=1;jettySize=auto;html=1;" edge="1" parent="WIyWlLk6GJQsqaUBKTNV-1" source="HGXFlzgKNrNibN4fWjjz-3" target="HGXFlzgKNrNibN4fWjjz-4">
          <mxGeometry relative="1" as="geometry" />
        </mxCell>
        <mxCell id="HGXFlzgKNrNibN4fWjjz-3" value="i = 0" style="rounded=0;whiteSpace=wrap;html=1;" vertex="1" parent="WIyWlLk6GJQsqaUBKTNV-1">
          <mxGeometry x="484" y="290" width="121" height="60" as="geometry" />
        </mxCell>
        <mxCell id="HGXFlzgKNrNibN4fWjjz-12" value="" style="edgeStyle=orthogonalEdgeStyle;rounded=0;orthogonalLoop=1;jettySize=auto;html=1;" edge="1" parent="WIyWlLk6GJQsqaUBKTNV-1" source="HGXFlzgKNrNibN4fWjjz-4" target="HGXFlzgKNrNibN4fWjjz-5">
          <mxGeometry relative="1" as="geometry" />
        </mxCell>
        <mxCell id="HGXFlzgKNrNibN4fWjjz-23" value="True" style="edgeLabel;html=1;align=center;verticalAlign=middle;resizable=0;points=[];" vertex="1" connectable="0" parent="HGXFlzgKNrNibN4fWjjz-12">
          <mxGeometry x="-0.191" y="1" relative="1" as="geometry">
            <mxPoint as="offset" />
          </mxGeometry>
        </mxCell>
        <mxCell id="HGXFlzgKNrNibN4fWjjz-24" style="edgeStyle=orthogonalEdgeStyle;rounded=0;orthogonalLoop=1;jettySize=auto;html=1;entryX=1;entryY=0.5;entryDx=0;entryDy=0;" edge="1" parent="WIyWlLk6GJQsqaUBKTNV-1" source="HGXFlzgKNrNibN4fWjjz-4" target="HGXFlzgKNrNibN4fWjjz-94">
          <mxGeometry relative="1" as="geometry">
            <mxPoint x="380" y="430" as="targetPoint" />
          </mxGeometry>
        </mxCell>
        <mxCell id="HGXFlzgKNrNibN4fWjjz-25" value="False" style="edgeLabel;html=1;align=center;verticalAlign=middle;resizable=0;points=[];" vertex="1" connectable="0" parent="HGXFlzgKNrNibN4fWjjz-24">
          <mxGeometry x="-0.3609" y="2" relative="1" as="geometry">
            <mxPoint as="offset" />
          </mxGeometry>
        </mxCell>
        <mxCell id="HGXFlzgKNrNibN4fWjjz-4" value="i &amp;lt; 10" style="rhombus;whiteSpace=wrap;html=1;" vertex="1" parent="WIyWlLk6GJQsqaUBKTNV-1">
          <mxGeometry x="504" y="390" width="81" height="80" as="geometry" />
        </mxCell>
        <mxCell id="HGXFlzgKNrNibN4fWjjz-13" value="" style="edgeStyle=orthogonalEdgeStyle;rounded=0;orthogonalLoop=1;jettySize=auto;html=1;" edge="1" parent="WIyWlLk6GJQsqaUBKTNV-1" source="HGXFlzgKNrNibN4fWjjz-5" target="HGXFlzgKNrNibN4fWjjz-6">
          <mxGeometry relative="1" as="geometry" />
        </mxCell>
        <mxCell id="HGXFlzgKNrNibN4fWjjz-5" value="Input x" style="shape=parallelogram;perimeter=parallelogramPerimeter;whiteSpace=wrap;html=1;fixedSize=1;" vertex="1" parent="WIyWlLk6GJQsqaUBKTNV-1">
          <mxGeometry x="484" y="514.5" width="121" height="60" as="geometry" />
        </mxCell>
        <mxCell id="HGXFlzgKNrNibN4fWjjz-8" value="" style="edgeStyle=orthogonalEdgeStyle;rounded=0;orthogonalLoop=1;jettySize=auto;html=1;" edge="1" parent="WIyWlLk6GJQsqaUBKTNV-1" source="HGXFlzgKNrNibN4fWjjz-6" target="HGXFlzgKNrNibN4fWjjz-7">
          <mxGeometry relative="1" as="geometry" />
        </mxCell>
        <mxCell id="HGXFlzgKNrNibN4fWjjz-6" value="numbers[i] = x" style="rounded=0;whiteSpace=wrap;html=1;" vertex="1" parent="WIyWlLk6GJQsqaUBKTNV-1">
          <mxGeometry x="484" y="610" width="121" height="60" as="geometry" />
        </mxCell>
        <mxCell id="HGXFlzgKNrNibN4fWjjz-19" style="edgeStyle=orthogonalEdgeStyle;rounded=0;orthogonalLoop=1;jettySize=auto;html=1;" edge="1" parent="WIyWlLk6GJQsqaUBKTNV-1" source="HGXFlzgKNrNibN4fWjjz-7">
          <mxGeometry relative="1" as="geometry">
            <mxPoint x="544" y="370" as="targetPoint" />
            <Array as="points">
              <mxPoint x="700" y="370" />
            </Array>
          </mxGeometry>
        </mxCell>
        <mxCell id="HGXFlzgKNrNibN4fWjjz-7" value="i++" style="rounded=0;whiteSpace=wrap;html=1;" vertex="1" parent="WIyWlLk6GJQsqaUBKTNV-1">
          <mxGeometry x="644" y="610" width="121" height="60" as="geometry" />
        </mxCell>
        <mxCell id="HGXFlzgKNrNibN4fWjjz-93" value="" style="edgeStyle=orthogonalEdgeStyle;rounded=0;orthogonalLoop=1;jettySize=auto;html=1;" edge="1" parent="WIyWlLk6GJQsqaUBKTNV-1" source="HGXFlzgKNrNibN4fWjjz-94" target="HGXFlzgKNrNibN4fWjjz-99">
          <mxGeometry relative="1" as="geometry" />
        </mxCell>
        <mxCell id="HGXFlzgKNrNibN4fWjjz-94" value="i = 0" style="whiteSpace=wrap;html=1;" vertex="1" parent="WIyWlLk6GJQsqaUBKTNV-1">
          <mxGeometry x="235" y="400" width="120" height="60" as="geometry" />
        </mxCell>
        <mxCell id="HGXFlzgKNrNibN4fWjjz-95" value="" style="edgeStyle=orthogonalEdgeStyle;rounded=0;orthogonalLoop=1;jettySize=auto;html=1;" edge="1" parent="WIyWlLk6GJQsqaUBKTNV-1" source="HGXFlzgKNrNibN4fWjjz-99" target="HGXFlzgKNrNibN4fWjjz-103">
          <mxGeometry relative="1" as="geometry" />
        </mxCell>
        <mxCell id="HGXFlzgKNrNibN4fWjjz-96" value="True" style="edgeLabel;html=1;align=center;verticalAlign=middle;resizable=0;points=[];" vertex="1" connectable="0" parent="HGXFlzgKNrNibN4fWjjz-95">
          <mxGeometry x="-0.5488" y="-3" relative="1" as="geometry">
            <mxPoint as="offset" />
          </mxGeometry>
        </mxCell>
        <mxCell id="HGXFlzgKNrNibN4fWjjz-97" value="" style="edgeStyle=orthogonalEdgeStyle;rounded=0;orthogonalLoop=1;jettySize=auto;html=1;" edge="1" parent="WIyWlLk6GJQsqaUBKTNV-1" source="HGXFlzgKNrNibN4fWjjz-99" target="HGXFlzgKNrNibN4fWjjz-119">
          <mxGeometry relative="1" as="geometry">
            <mxPoint x="450" y="1310" as="targetPoint" />
            <Array as="points">
              <mxPoint x="100" y="520" />
              <mxPoint x="100" y="1250" />
            </Array>
          </mxGeometry>
        </mxCell>
        <mxCell id="HGXFlzgKNrNibN4fWjjz-98" value="False" style="edgeLabel;html=1;align=center;verticalAlign=middle;resizable=0;points=[];" vertex="1" connectable="0" parent="HGXFlzgKNrNibN4fWjjz-97">
          <mxGeometry x="-0.0544" y="3" relative="1" as="geometry">
            <mxPoint as="offset" />
          </mxGeometry>
        </mxCell>
        <mxCell id="HGXFlzgKNrNibN4fWjjz-99" value="i &amp;lt; 10" style="rhombus;whiteSpace=wrap;html=1;" vertex="1" parent="WIyWlLk6GJQsqaUBKTNV-1">
          <mxGeometry x="255" y="480" width="80" height="80" as="geometry" />
        </mxCell>
        <mxCell id="HGXFlzgKNrNibN4fWjjz-100" value="" style="edgeStyle=orthogonalEdgeStyle;rounded=0;orthogonalLoop=1;jettySize=auto;html=1;" edge="1" parent="WIyWlLk6GJQsqaUBKTNV-1" target="HGXFlzgKNrNibN4fWjjz-107">
          <mxGeometry relative="1" as="geometry">
            <mxPoint x="295.0588235294117" y="790" as="sourcePoint" />
          </mxGeometry>
        </mxCell>
        <mxCell id="HGXFlzgKNrNibN4fWjjz-101" value="" style="edgeStyle=orthogonalEdgeStyle;rounded=0;orthogonalLoop=1;jettySize=auto;html=1;" edge="1" parent="WIyWlLk6GJQsqaUBKTNV-1" target="HGXFlzgKNrNibN4fWjjz-107">
          <mxGeometry relative="1" as="geometry">
            <mxPoint x="295.0588235294117" y="790" as="sourcePoint" />
          </mxGeometry>
        </mxCell>
        <mxCell id="HGXFlzgKNrNibN4fWjjz-102" value="" style="edgeStyle=orthogonalEdgeStyle;rounded=0;orthogonalLoop=1;jettySize=auto;html=1;" edge="1" parent="WIyWlLk6GJQsqaUBKTNV-1" source="HGXFlzgKNrNibN4fWjjz-103" target="HGXFlzgKNrNibN4fWjjz-115">
          <mxGeometry relative="1" as="geometry" />
        </mxCell>
        <mxCell id="HGXFlzgKNrNibN4fWjjz-103" value="j = 0" style="whiteSpace=wrap;html=1;" vertex="1" parent="WIyWlLk6GJQsqaUBKTNV-1">
          <mxGeometry x="235" y="620" width="120" height="60" as="geometry" />
        </mxCell>
        <mxCell id="HGXFlzgKNrNibN4fWjjz-104" value="" style="edgeStyle=orthogonalEdgeStyle;rounded=0;orthogonalLoop=1;jettySize=auto;html=1;" edge="1" parent="WIyWlLk6GJQsqaUBKTNV-1" source="HGXFlzgKNrNibN4fWjjz-107" target="HGXFlzgKNrNibN4fWjjz-111">
          <mxGeometry relative="1" as="geometry" />
        </mxCell>
        <mxCell id="HGXFlzgKNrNibN4fWjjz-105" value="True" style="edgeLabel;html=1;align=center;verticalAlign=middle;resizable=0;points=[];" vertex="1" connectable="0" parent="HGXFlzgKNrNibN4fWjjz-104">
          <mxGeometry x="-0.4265" relative="1" as="geometry">
            <mxPoint as="offset" />
          </mxGeometry>
        </mxCell>
        <mxCell id="HGXFlzgKNrNibN4fWjjz-106" style="edgeStyle=orthogonalEdgeStyle;rounded=0;orthogonalLoop=1;jettySize=auto;html=1;" edge="1" parent="WIyWlLk6GJQsqaUBKTNV-1" source="HGXFlzgKNrNibN4fWjjz-107">
          <mxGeometry relative="1" as="geometry">
            <mxPoint x="305" y="470" as="targetPoint" />
            <Array as="points">
              <mxPoint x="426" y="860" />
              <mxPoint x="426" y="470" />
            </Array>
          </mxGeometry>
        </mxCell>
        <mxCell id="HGXFlzgKNrNibN4fWjjz-107" value="j &amp;lt; 10-i-1" style="rhombus;whiteSpace=wrap;html=1;" vertex="1" parent="WIyWlLk6GJQsqaUBKTNV-1">
          <mxGeometry x="255" y="820" width="80" height="80" as="geometry" />
        </mxCell>
        <mxCell id="HGXFlzgKNrNibN4fWjjz-108" value="" style="edgeStyle=orthogonalEdgeStyle;rounded=0;orthogonalLoop=1;jettySize=auto;html=1;" edge="1" parent="WIyWlLk6GJQsqaUBKTNV-1" source="HGXFlzgKNrNibN4fWjjz-111" target="HGXFlzgKNrNibN4fWjjz-113">
          <mxGeometry relative="1" as="geometry" />
        </mxCell>
        <mxCell id="HGXFlzgKNrNibN4fWjjz-109" value="True" style="edgeLabel;html=1;align=center;verticalAlign=middle;resizable=0;points=[];" vertex="1" connectable="0" parent="HGXFlzgKNrNibN4fWjjz-108">
          <mxGeometry x="-0.3676" y="2" relative="1" as="geometry">
            <mxPoint as="offset" />
          </mxGeometry>
        </mxCell>
        <mxCell id="HGXFlzgKNrNibN4fWjjz-110" style="edgeStyle=orthogonalEdgeStyle;rounded=0;orthogonalLoop=1;jettySize=auto;html=1;" edge="1" parent="WIyWlLk6GJQsqaUBKTNV-1" source="HGXFlzgKNrNibN4fWjjz-111">
          <mxGeometry relative="1" as="geometry">
            <mxPoint x="285" y="790" as="targetPoint" />
            <Array as="points">
              <mxPoint x="155" y="980" />
            </Array>
          </mxGeometry>
        </mxCell>
        <mxCell id="HGXFlzgKNrNibN4fWjjz-111" value="numbers[j] &amp;gt; numbers[j+1]" style="rhombus;whiteSpace=wrap;html=1;" vertex="1" parent="WIyWlLk6GJQsqaUBKTNV-1">
          <mxGeometry x="180" y="940" width="230" height="80" as="geometry" />
        </mxCell>
        <mxCell id="HGXFlzgKNrNibN4fWjjz-112" value="" style="edgeStyle=orthogonalEdgeStyle;rounded=0;orthogonalLoop=1;jettySize=auto;html=1;" edge="1" parent="WIyWlLk6GJQsqaUBKTNV-1" source="HGXFlzgKNrNibN4fWjjz-113" target="HGXFlzgKNrNibN4fWjjz-117">
          <mxGeometry relative="1" as="geometry" />
        </mxCell>
        <mxCell id="HGXFlzgKNrNibN4fWjjz-113" value="numbers[j], numbers[j+1] = numbers[j+1], numbers[j]" style="whiteSpace=wrap;html=1;" vertex="1" parent="WIyWlLk6GJQsqaUBKTNV-1">
          <mxGeometry x="140" y="1060" width="310" height="60" as="geometry" />
        </mxCell>
        <mxCell id="HGXFlzgKNrNibN4fWjjz-114" value="" style="edgeStyle=orthogonalEdgeStyle;rounded=0;orthogonalLoop=1;jettySize=auto;html=1;" edge="1" parent="WIyWlLk6GJQsqaUBKTNV-1" source="HGXFlzgKNrNibN4fWjjz-115" target="HGXFlzgKNrNibN4fWjjz-107">
          <mxGeometry relative="1" as="geometry" />
        </mxCell>
        <mxCell id="HGXFlzgKNrNibN4fWjjz-115" value="i ++" style="whiteSpace=wrap;html=1;" vertex="1" parent="WIyWlLk6GJQsqaUBKTNV-1">
          <mxGeometry x="235" y="710" width="120" height="60" as="geometry" />
        </mxCell>
        <mxCell id="HGXFlzgKNrNibN4fWjjz-116" style="edgeStyle=orthogonalEdgeStyle;rounded=0;orthogonalLoop=1;jettySize=auto;html=1;" edge="1" parent="WIyWlLk6GJQsqaUBKTNV-1" source="HGXFlzgKNrNibN4fWjjz-117">
          <mxGeometry relative="1" as="geometry">
            <mxPoint x="305" y="790" as="targetPoint" />
            <Array as="points">
              <mxPoint x="495" y="1180" />
              <mxPoint x="495" y="790" />
            </Array>
          </mxGeometry>
        </mxCell>
        <mxCell id="HGXFlzgKNrNibN4fWjjz-117" value="j++" style="whiteSpace=wrap;html=1;" vertex="1" parent="WIyWlLk6GJQsqaUBKTNV-1">
          <mxGeometry x="235" y="1150" width="120" height="60" as="geometry" />
        </mxCell>
        <mxCell id="HGXFlzgKNrNibN4fWjjz-121" value="" style="edgeStyle=orthogonalEdgeStyle;rounded=0;orthogonalLoop=1;jettySize=auto;html=1;" edge="1" parent="WIyWlLk6GJQsqaUBKTNV-1" source="HGXFlzgKNrNibN4fWjjz-119" target="HGXFlzgKNrNibN4fWjjz-120">
          <mxGeometry relative="1" as="geometry" />
        </mxCell>
        <mxCell id="HGXFlzgKNrNibN4fWjjz-119" value="Print(&quot;Ascending&quot;)" style="shape=parallelogram;perimeter=parallelogramPerimeter;whiteSpace=wrap;html=1;fixedSize=1;" vertex="1" parent="WIyWlLk6GJQsqaUBKTNV-1">
          <mxGeometry x="380" y="1280" width="150" height="60" as="geometry" />
        </mxCell>
        <mxCell id="HGXFlzgKNrNibN4fWjjz-125" value="" style="edgeStyle=orthogonalEdgeStyle;rounded=0;orthogonalLoop=1;jettySize=auto;html=1;" edge="1" parent="WIyWlLk6GJQsqaUBKTNV-1" source="HGXFlzgKNrNibN4fWjjz-120" target="HGXFlzgKNrNibN4fWjjz-124">
          <mxGeometry relative="1" as="geometry" />
        </mxCell>
        <mxCell id="HGXFlzgKNrNibN4fWjjz-120" value="o = 0" style="whiteSpace=wrap;html=1;" vertex="1" parent="WIyWlLk6GJQsqaUBKTNV-1">
          <mxGeometry x="395" y="1380" width="120" height="60" as="geometry" />
        </mxCell>
        <mxCell id="HGXFlzgKNrNibN4fWjjz-128" value="" style="edgeStyle=orthogonalEdgeStyle;rounded=0;orthogonalLoop=1;jettySize=auto;html=1;" edge="1" parent="WIyWlLk6GJQsqaUBKTNV-1" source="HGXFlzgKNrNibN4fWjjz-124" target="HGXFlzgKNrNibN4fWjjz-127">
          <mxGeometry relative="1" as="geometry" />
        </mxCell>
        <mxCell id="HGXFlzgKNrNibN4fWjjz-129" value="True" style="edgeLabel;html=1;align=center;verticalAlign=middle;resizable=0;points=[];" vertex="1" connectable="0" parent="HGXFlzgKNrNibN4fWjjz-128">
          <mxGeometry x="-0.4171" y="1" relative="1" as="geometry">
            <mxPoint as="offset" />
          </mxGeometry>
        </mxCell>
        <mxCell id="HGXFlzgKNrNibN4fWjjz-132" value="" style="edgeStyle=orthogonalEdgeStyle;rounded=0;orthogonalLoop=1;jettySize=auto;html=1;" edge="1" parent="WIyWlLk6GJQsqaUBKTNV-1" source="HGXFlzgKNrNibN4fWjjz-124" target="HGXFlzgKNrNibN4fWjjz-131">
          <mxGeometry relative="1" as="geometry" />
        </mxCell>
        <mxCell id="HGXFlzgKNrNibN4fWjjz-149" value="False" style="edgeLabel;html=1;align=center;verticalAlign=middle;resizable=0;points=[];" vertex="1" connectable="0" parent="HGXFlzgKNrNibN4fWjjz-132">
          <mxGeometry x="-0.0484" y="1" relative="1" as="geometry">
            <mxPoint as="offset" />
          </mxGeometry>
        </mxCell>
        <mxCell id="HGXFlzgKNrNibN4fWjjz-124" value="o &amp;lt; 10" style="rhombus;whiteSpace=wrap;html=1;" vertex="1" parent="WIyWlLk6GJQsqaUBKTNV-1">
          <mxGeometry x="415" y="1470" width="80" height="80" as="geometry" />
        </mxCell>
        <mxCell id="HGXFlzgKNrNibN4fWjjz-138" value="" style="edgeStyle=orthogonalEdgeStyle;rounded=0;orthogonalLoop=1;jettySize=auto;html=1;" edge="1" parent="WIyWlLk6GJQsqaUBKTNV-1" source="HGXFlzgKNrNibN4fWjjz-127" target="HGXFlzgKNrNibN4fWjjz-137">
          <mxGeometry relative="1" as="geometry" />
        </mxCell>
        <mxCell id="HGXFlzgKNrNibN4fWjjz-127" value="Print(numbers[o])" style="shape=parallelogram;perimeter=parallelogramPerimeter;whiteSpace=wrap;html=1;fixedSize=1;" vertex="1" parent="WIyWlLk6GJQsqaUBKTNV-1">
          <mxGeometry x="395" y="1600" width="120" height="60" as="geometry" />
        </mxCell>
        <mxCell id="HGXFlzgKNrNibN4fWjjz-134" value="" style="edgeStyle=orthogonalEdgeStyle;rounded=0;orthogonalLoop=1;jettySize=auto;html=1;" edge="1" parent="WIyWlLk6GJQsqaUBKTNV-1" source="HGXFlzgKNrNibN4fWjjz-131" target="HGXFlzgKNrNibN4fWjjz-133">
          <mxGeometry relative="1" as="geometry" />
        </mxCell>
        <mxCell id="HGXFlzgKNrNibN4fWjjz-131" value="Print(&quot;Descending&quot;)" style="shape=parallelogram;perimeter=parallelogramPerimeter;whiteSpace=wrap;html=1;fixedSize=1;" vertex="1" parent="WIyWlLk6GJQsqaUBKTNV-1">
          <mxGeometry x="140" y="1480" width="155" height="60" as="geometry" />
        </mxCell>
        <mxCell id="HGXFlzgKNrNibN4fWjjz-142" value="" style="edgeStyle=orthogonalEdgeStyle;rounded=0;orthogonalLoop=1;jettySize=auto;html=1;" edge="1" parent="WIyWlLk6GJQsqaUBKTNV-1" source="HGXFlzgKNrNibN4fWjjz-133" target="HGXFlzgKNrNibN4fWjjz-141">
          <mxGeometry relative="1" as="geometry" />
        </mxCell>
        <mxCell id="HGXFlzgKNrNibN4fWjjz-133" value="h = 10" style="whiteSpace=wrap;html=1;" vertex="1" parent="WIyWlLk6GJQsqaUBKTNV-1">
          <mxGeometry x="157.5" y="1620" width="120" height="60" as="geometry" />
        </mxCell>
        <mxCell id="HGXFlzgKNrNibN4fWjjz-140" style="edgeStyle=orthogonalEdgeStyle;rounded=0;orthogonalLoop=1;jettySize=auto;html=1;" edge="1" parent="WIyWlLk6GJQsqaUBKTNV-1" source="HGXFlzgKNrNibN4fWjjz-137">
          <mxGeometry relative="1" as="geometry">
            <mxPoint x="460" y="1460" as="targetPoint" />
            <Array as="points">
              <mxPoint x="560" y="1730" />
              <mxPoint x="560" y="1460" />
            </Array>
          </mxGeometry>
        </mxCell>
        <mxCell id="HGXFlzgKNrNibN4fWjjz-137" value="o++" style="whiteSpace=wrap;html=1;" vertex="1" parent="WIyWlLk6GJQsqaUBKTNV-1">
          <mxGeometry x="395" y="1700" width="120" height="60" as="geometry" />
        </mxCell>
        <mxCell id="HGXFlzgKNrNibN4fWjjz-144" value="" style="edgeStyle=orthogonalEdgeStyle;rounded=0;orthogonalLoop=1;jettySize=auto;html=1;" edge="1" parent="WIyWlLk6GJQsqaUBKTNV-1" source="HGXFlzgKNrNibN4fWjjz-141" target="HGXFlzgKNrNibN4fWjjz-143">
          <mxGeometry relative="1" as="geometry" />
        </mxCell>
        <mxCell id="HGXFlzgKNrNibN4fWjjz-145" value="True" style="edgeLabel;html=1;align=center;verticalAlign=middle;resizable=0;points=[];" vertex="1" connectable="0" parent="HGXFlzgKNrNibN4fWjjz-144">
          <mxGeometry x="-0.4952" y="1" relative="1" as="geometry">
            <mxPoint y="-1" as="offset" />
          </mxGeometry>
        </mxCell>
        <mxCell id="HGXFlzgKNrNibN4fWjjz-151" value="" style="edgeStyle=orthogonalEdgeStyle;rounded=0;orthogonalLoop=1;jettySize=auto;html=1;" edge="1" parent="WIyWlLk6GJQsqaUBKTNV-1" source="HGXFlzgKNrNibN4fWjjz-141" target="HGXFlzgKNrNibN4fWjjz-150">
          <mxGeometry relative="1" as="geometry" />
        </mxCell>
        <mxCell id="HGXFlzgKNrNibN4fWjjz-141" value="h &amp;gt; 0" style="rhombus;whiteSpace=wrap;html=1;" vertex="1" parent="WIyWlLk6GJQsqaUBKTNV-1">
          <mxGeometry x="177.5" y="1730" width="80" height="80" as="geometry" />
        </mxCell>
        <mxCell id="HGXFlzgKNrNibN4fWjjz-147" value="" style="edgeStyle=orthogonalEdgeStyle;rounded=0;orthogonalLoop=1;jettySize=auto;html=1;" edge="1" parent="WIyWlLk6GJQsqaUBKTNV-1" source="HGXFlzgKNrNibN4fWjjz-143" target="HGXFlzgKNrNibN4fWjjz-146">
          <mxGeometry relative="1" as="geometry" />
        </mxCell>
        <mxCell id="HGXFlzgKNrNibN4fWjjz-143" value="Print(numbers[h])" style="shape=parallelogram;perimeter=parallelogramPerimeter;whiteSpace=wrap;html=1;fixedSize=1;" vertex="1" parent="WIyWlLk6GJQsqaUBKTNV-1">
          <mxGeometry x="157.5" y="1870" width="120" height="60" as="geometry" />
        </mxCell>
        <mxCell id="HGXFlzgKNrNibN4fWjjz-148" style="edgeStyle=orthogonalEdgeStyle;rounded=0;orthogonalLoop=1;jettySize=auto;html=1;" edge="1" parent="WIyWlLk6GJQsqaUBKTNV-1" source="HGXFlzgKNrNibN4fWjjz-146">
          <mxGeometry relative="1" as="geometry">
            <mxPoint x="220" y="1700" as="targetPoint" />
            <Array as="points">
              <mxPoint x="321" y="2000" />
              <mxPoint x="321" y="1700" />
            </Array>
          </mxGeometry>
        </mxCell>
        <mxCell id="HGXFlzgKNrNibN4fWjjz-146" value="h--" style="whiteSpace=wrap;html=1;" vertex="1" parent="WIyWlLk6GJQsqaUBKTNV-1">
          <mxGeometry x="157.5" y="1970" width="120" height="60" as="geometry" />
        </mxCell>
        <mxCell id="HGXFlzgKNrNibN4fWjjz-150" value="Finish" style="ellipse;whiteSpace=wrap;html=1;" vertex="1" parent="WIyWlLk6GJQsqaUBKTNV-1">
          <mxGeometry x="40" y="2060" width="80" height="80" as="geometry" />
        </mxCell>
      </root>
    </mxGraphModel>
  </diagram>
</mxfile>
